# xmcd
#
# Track frame offsets:
#	150
#	36357
#	69852
#	86982
#	122920
#	160635
#	189677
#	218492
#	248552
#	272755
#
# Disc length: 3914 seconds
#
# Revision: 1
# Processed by: cddbd v1.5.1PL0 Copyright (c) Steve Scherf et al.
# Submitted via: CDex 1.50Beta5
#
DISCID=870f480a
DTITLE=ボールト - the planets
DYEAR=1900
DGENRE=
TTITLE0=エイドリアン・ボールト指揮/ロンドンフィルハーモニー管弦楽団/組曲「惑星」火星(戦争の神)
TTITLE1=エイドリアン・ボールト指揮/ロンドンフィルハーモニー管弦楽団/組曲「惑星」金星(平和の神)
TTITLE2=エイドリアン・ボールト指揮/ロンドンフィルハーモニー管弦楽団/組曲「惑星」水星(翼のある使いの神)
TTITLE3=エイドリアン・ボールト指揮/ロンドンフィルハーモニー管弦楽団/組曲「惑星」木星(快楽の神)
TTITLE4=エイドリアン・ボールト指揮/ロンドンフィルハーモニー管弦楽団/組曲「惑星」土星(老年の神)
TTITLE5=エイドリアン・ボールト指揮/ロンドンフィルハーモニー管弦楽団/組曲「惑星」天王星(魔術の神)
TTITLE6=エイドリアン・ボールト指揮/ロンドンフィルハーモニー管弦楽団/組曲「惑星」海王星(神秘の神)
TTITLE7=ジョン・バルビローリ指揮/フィルハーモニア管弦楽団/「威風堂々」第1番ニ長調
TTITLE8=ジョン・バルビローリ指揮/フィルハーモニア管弦楽団/「威風堂々」第4番ト長調
TTITLE9=ジョン・バルビローリ指揮/シンフォニア・オブ・ロンドン/グリーンスリーヴスによる幻想曲
EXTD=
EXTT0=
EXTT1=
EXTT2=
EXTT3=
EXTT4=
EXTT5=
EXTT6=
EXTT7=
EXTT8=
EXTT9=
PLAYORDER=
